<svg width="889" height="422" viewBox="0 0 889 422" fill="none" xmlns="http://www.w3.org/2000/svg">
<path d="M8.17556 212.466V204.281V183.3H11.2103C12.4242 187.958 17.2797 192.212 24.3607 192.212H48.2338C59.968 192.212 72.7138 183.503 72.7138 165.882C72.7138 116.664 8.17556 158.388 8.17556 88.714C8.17556 57.7254 24.9676 40.307 52.887 40.307H80.7234H88.899V69.4727H85.8643C84.6504 64.8143 79.7948 60.5609 72.7138 60.5609H52.887C41.1528 60.5609 28.407 69.2702 28.407 87.7013C28.407 136.513 92.9453 94.3851 92.9453 164.059C92.9453 195.047 76.1532 212.466 48.2338 212.466H8.17556Z" fill="#C94F2B"/>
<path d="M101.485 8.18493H312.48H320.655V37.3506H317.621C316.407 32.6922 311.551 28.4389 304.47 28.4389H156.717V181.463C156.717 188.552 160.965 193.413 165.618 194.628V197.666H127.583V194.628C130.165 193.954 132.622 192.157 134.298 189.481C135.643 187.333 136.485 184.619 136.485 181.463V28.4389H117.67C110.589 28.4389 105.733 32.6922 104.519 37.3506H101.485V22.4438V8.18493Z" fill="#C94F2B"/>
<path d="M428.542 185.631V182.593C431.124 181.919 433.581 180.123 435.257 177.446C436.602 175.298 437.444 172.584 437.444 169.428V38.2489C437.444 31.16 433.195 26.2991 428.542 25.0838V22.0457H453.601H457.675L488.022 82.6051L518.37 22.0457H532.613H547.503V25.0838C542.85 26.2991 538.601 31.16 538.601 38.2489V190.875C538.601 192.716 538.887 194.406 539.393 195.921C540.834 200.242 544.058 203.141 547.503 204.04V207.079H509.468V204.04C512.049 203.366 514.506 201.57 516.182 198.894C517.528 196.746 518.37 194.031 518.37 190.875V65.9969L488.022 125.746L481.856 113.605L457.675 65.9969V169.428C457.675 171.268 457.962 172.958 458.467 174.474C459.909 178.795 463.132 181.693 466.577 182.593V185.631H428.542Z" fill="#C94F2B"/>
<path d="M588.024 197.056H637.389C640.542 197.056 643.253 196.213 645.398 194.866C648.072 193.188 649.866 190.728 650.539 188.144H653.574V217.31H567.793V209.125V197.056C567.793 127.382 632.331 141.357 632.331 92.5453C632.331 74.1142 619.585 65.4049 607.851 65.4049H588.024C580.943 65.4049 576.088 69.6583 574.874 74.3167H571.839V59.4098V45.151H607.851C635.77 45.151 652.562 62.5694 652.562 93.558C652.562 152.7 589.238 138.522 588.024 197.056Z" fill="black"/>
<path d="M672.775 159.127V79.7315C672.775 48.7429 689.567 31.3245 717.486 31.3245C745.406 31.3245 762.198 48.7429 762.198 79.7315V159.127C762.198 190.116 745.406 207.534 717.486 207.534C689.567 207.534 672.775 190.116 672.775 159.127ZM741.966 158.317V80.5417C741.966 60.2877 729.221 51.5785 717.486 51.5785C705.752 51.5785 693.006 60.2877 693.006 80.5417V158.317C693.006 178.571 705.752 187.28 717.486 187.28C729.221 187.28 741.966 178.571 741.966 158.317Z" fill="black"/>
<path d="M779.346 49.5047V46.4666H802.49H817.381V49.5047C812.727 50.72 808.479 55.5809 808.479 62.6698V109.254L847.728 62.6698C852.381 57.2012 851.167 50.72 846.514 49.5047V46.4666H872.337H889V49.5047C884.347 50.72 877.063 57.2012 872.41 62.6698L841.658 99.127L872.41 187.435C873.322 190.54 875.839 193.275 878.755 195.453C882.304 198.105 886.445 199.933 889 200.6V203.638H849.751V200.6C852.332 199.926 853.046 198.129 852.824 195.453C852.646 193.305 851.866 190.591 850.965 187.435L825.676 118.166L808.479 138.42V202.422C808.479 209.511 812.727 214.372 817.381 215.587V218.625H779.346V215.587C781.927 214.913 784.384 213.117 786.06 210.44C787.405 208.293 788.247 205.578 788.247 202.422V62.6698C788.247 55.5809 783.999 50.72 779.346 49.5047Z" fill="black"/>
<path d="M228.847 408.106C200.927 408.106 184.135 390.688 184.135 359.699V284.355C184.135 253.366 200.927 235.948 228.847 235.948H256.683H264.859V265.113H261.824C260.61 260.455 255.755 256.202 248.674 256.202H228.847C217.113 256.202 204.367 264.911 204.367 285.165V358.889C204.367 379.143 217.113 387.852 228.847 387.852H248.674C251.826 387.852 254.538 387.009 256.683 385.663C259.356 383.985 261.151 381.525 261.824 378.941H264.859V408.106H228.847Z" fill="#C94F2B"/>
<path d="M279.049 418.962C281.631 418.288 284.088 416.491 285.764 413.815C287.109 411.667 287.951 408.953 287.951 405.797V296.223C287.951 265.234 304.743 247.816 332.663 247.816C360.582 247.816 377.374 265.234 377.374 296.223L377.393 387.345C377.393 389.186 377.68 390.876 378.185 392.391C379.627 396.712 382.85 399.611 386.295 400.51V403.549H348.26V400.51C350.842 399.836 353.299 398.04 354.975 395.364C356.32 393.216 357.162 390.501 357.162 387.345L357.143 352.731H308.183V405.797C308.183 407.637 308.469 409.327 308.974 410.843C310.416 415.164 313.639 418.062 317.084 418.962V422H279.049V418.962ZM308.183 297.033V332.477H357.143V297.033C357.143 276.779 344.397 268.07 332.663 268.07C320.928 268.07 308.183 276.779 308.183 297.033Z" fill="#C94F2B"/>
<path d="M398.383 259.582V256.544H451.996C479.916 256.544 498.326 273.557 498.326 303.938C498.326 330.268 484.569 346.471 462.719 350.32L484.164 405.797C485.273 408.849 487.352 411.605 489.726 413.815C492.552 416.445 495.798 418.302 498.326 418.962V422H458.268V418.962C460.797 418.302 462.369 416.445 462.889 413.815C463.325 411.605 463.018 408.849 461.91 405.797L440.869 351.332H427.516V386.738C427.516 388.89 427.867 390.842 428.477 392.56C429.99 396.823 433.101 399.644 436.418 400.51V403.549H398.383V400.51C400.965 399.836 403.422 398.04 405.098 395.364C406.443 393.216 407.285 390.501 407.285 387.345V272.747C407.285 265.658 403.036 260.797 398.383 259.582ZM451.996 276.798H427.516V331.078H451.996C463.731 331.078 478.095 324.192 478.095 303.938C478.095 283.684 463.731 276.798 451.996 276.798Z" fill="#C94F2B"/>
<path d="M512.58 416.203V413.165C515.162 412.491 517.619 410.695 519.295 408.018C520.64 405.871 521.482 403.156 521.482 400V260.248C521.482 253.159 517.233 248.298 512.58 247.083V244.045H566.193C594.113 244.045 610.905 261.463 610.905 292.452V367.796C610.905 398.785 594.113 416.203 566.193 416.203H512.58ZM566.193 264.299H541.713V395.949H566.193C577.928 395.949 590.673 387.24 590.673 366.986V293.262C590.673 273.008 577.928 264.299 566.193 264.299Z" fill="#C94F2B"/>
<path d="M630.183 422V413.815V392.834H633.218C634.432 397.493 639.287 401.746 646.368 401.746H670.241C681.976 401.746 694.721 393.037 694.721 375.416C694.721 326.199 630.183 367.922 630.183 298.248C630.183 267.26 646.975 242.905 674.895 242.905H702.731H710.907V272.071H707.872C706.658 267.412 701.802 263.159 694.721 263.159H674.895C663.16 263.159 650.415 278.804 650.415 297.236C650.415 346.048 714.953 303.919 714.953 373.593C714.953 404.582 698.161 422 670.241 422H630.183Z" fill="#C94F2B"/>
<path d="M213.269 201.107L212.014 91.2619H232.245V109.684H263.401C266.554 109.684 269.266 108.841 271.411 107.494C274.084 105.816 275.878 103.357 276.552 100.772H279.587V138.85H276.552C275.338 134.191 270.482 129.938 263.401 129.938H232.245L233.5 197.056H280.032C283.185 197.056 285.897 196.213 288.042 194.866C290.715 193.188 292.509 190.728 293.183 188.144H296.218V217.31H204.367V214.272C206.948 213.597 209.405 211.801 211.081 209.125C212.427 206.977 213.269 204.263 213.269 201.107Z" fill="#C94F2B"/>
<path d="M212.013 67.6901C212.013 60.6012 207.765 55.7402 203.112 54.525V51.4869H286.787H294.962V80.6526H291.928C290.714 75.9942 285.858 71.7409 278.777 71.7409H232.245V93.8267H212.013V67.6901Z" fill="#C94F2B"/>
<path d="M338.341 116.805H354.187L407.533 117.023V190.124C407.533 191.964 407.819 193.655 408.325 195.17C409.766 199.491 412.99 202.389 416.435 203.289V206.327H378.4V203.289C380.981 202.615 383.438 200.819 385.114 198.142C386.459 195.995 387.302 193.28 387.302 190.124V137.059H338.341V190.124C338.341 191.964 338.628 193.655 339.133 195.17C340.575 199.491 343.798 202.389 347.243 203.289V206.327H309.208V203.289C311.79 202.615 314.247 200.819 315.923 198.142C317.268 195.995 318.11 193.28 318.11 190.124V116.657L338.341 116.74V116.805Z" fill="#C94F2B"/>
<path d="M362.822 88.7649C351.088 88.7649 338.342 97.4741 338.342 117.728V153.108L318.11 153.025V116.918C318.11 85.9293 334.902 68.5109 362.822 68.5109C390.741 68.5109 407.533 85.9293 407.533 116.918V153.391L379.126 153.173H387.302V117.728C387.302 97.4741 374.556 88.7649 362.822 88.7649Z" fill="#C94F2B"/>
<path d="M0 204.281V175.115H3.03472C4.2486 179.774 9.10414 184.027 16.1851 184.027H40.0582C51.7925 184.027 64.5383 175.318 64.5383 157.697C64.5383 108.48 0 150.203 0 80.5291C0 49.5405 16.7921 32.122 44.7115 32.122H80.7234V40.307V61.2878H77.6887C76.4748 56.6293 71.6193 52.376 64.5383 52.376H44.7115C32.9772 52.376 20.2314 61.0852 20.2314 79.5163C20.2314 128.328 84.7697 86.2001 84.7697 155.874C84.7697 186.862 67.9776 204.281 40.0582 204.281H8.17556H0Z" fill="#F75C2E"/>
<path d="M93.3092 0H312.48V8.18493V29.1657H309.445C308.231 24.5073 303.376 20.254 296.295 20.254H148.541V173.278C148.541 180.367 152.79 185.228 157.443 186.443V189.481H134.298H119.408V186.443C124.061 185.228 128.31 180.367 128.31 173.278V20.254H109.494C106.342 20.254 103.63 21.0971 101.485 22.4438C98.8115 24.1217 97.0173 26.5814 96.3439 29.1657H93.3092V0Z" fill="#F75C2E"/>
<path d="M420.367 177.446V174.408C425.02 173.193 429.268 168.332 429.268 161.243V30.064C429.268 22.9751 425.02 18.1141 420.367 16.8989V13.8608H449.5L453.601 22.0457L479.847 74.4202L510.194 13.8608H539.327V16.8989C536.746 17.5731 534.289 19.3694 532.613 22.0457C531.268 24.1935 530.425 26.9079 530.425 30.064V182.69C530.425 189.779 534.674 194.64 539.327 195.856V198.894H516.182H501.292V195.856C505.945 194.64 510.194 189.779 510.194 182.69V57.812L481.856 113.605L479.847 117.561L449.5 57.812V161.243C449.5 168.332 453.748 173.193 458.402 174.408V177.446H435.257H420.367Z" fill="#F75C2E"/>
<path d="M579.849 188.871H629.213C636.294 188.871 641.15 184.618 642.364 179.959H645.398V194.866V209.125H567.793H559.617V188.871C559.617 119.197 624.155 133.172 624.155 84.3604C624.155 65.9292 611.41 57.22 599.675 57.22H579.849C576.696 57.22 573.984 58.0631 571.839 59.4098C569.166 61.0877 567.372 63.5474 566.698 66.1318H563.664V36.966H599.675C627.595 36.966 644.387 54.3845 644.387 85.3731C644.387 144.515 581.062 130.337 579.849 188.871Z" fill="#3B3B3B"/>
<path d="M664.599 150.942V71.5466C664.599 40.558 681.391 23.1396 709.311 23.1396C737.23 23.1396 754.022 40.558 754.022 71.5466V150.942C754.022 181.931 737.23 199.349 709.311 199.349C681.391 199.349 664.599 181.931 664.599 150.942ZM733.791 150.132V72.3568C733.791 52.1028 721.045 43.3936 709.311 43.3936C697.577 43.3936 684.831 52.1028 684.831 72.3568V150.132C684.831 170.386 697.577 179.095 709.311 179.095C721.045 179.095 733.791 170.386 733.791 150.132Z" fill="#3B3B3B"/>
<path d="M771.17 41.3198V38.2817H809.205V41.3198C806.624 41.994 804.167 43.7903 802.49 46.4666C801.145 48.6144 800.303 51.3288 800.303 54.4849V101.069L839.552 54.4849C844.206 49.0163 842.992 42.535 838.338 41.3198V38.2817H880.824V41.3198C878.448 41.9405 875.385 43.935 872.337 46.4666C869.417 48.8916 866.511 51.8095 864.235 54.4849L833.483 90.9421L864.235 179.25C866.258 186.136 876.171 191.2 880.824 192.415V195.453H878.755H852.824H841.575V192.415C846.229 191.2 844.812 186.339 842.789 179.25L817.5 109.981L800.303 130.235V194.237C800.303 201.326 804.552 206.187 809.205 207.402V210.44H786.06H771.17V207.402C775.823 206.187 780.072 201.326 780.072 194.237V54.4849C780.072 47.396 775.823 42.535 771.17 41.3198Z" fill="#3B3B3B"/>
<path d="M220.671 399.922C192.752 399.922 175.96 382.503 175.96 351.515V276.17C175.96 245.181 192.752 227.763 220.671 227.763H256.683V235.948V256.928H253.649C252.435 252.27 247.579 248.017 240.498 248.017H220.671C208.937 248.017 196.191 256.726 196.191 276.98V350.704C196.191 370.958 208.937 379.668 220.671 379.668H240.498C247.579 379.668 252.435 375.414 253.649 370.756H256.683V385.663V399.922H220.671Z" fill="#F75C2E"/>
<path d="M270.874 410.777C275.527 409.562 279.776 404.701 279.776 397.612V288.038C279.776 257.049 296.568 239.631 324.487 239.631C352.406 239.631 369.198 257.049 369.198 288.038L369.218 379.16C369.218 386.249 373.466 391.11 378.12 392.326V395.364H354.975H340.085V392.326C344.738 391.11 348.986 386.249 348.986 379.16L348.967 344.547H300.007V397.612C300.007 404.701 304.256 409.562 308.909 410.777V413.815H285.764H270.874V410.777ZM300.007 288.848V324.293H348.967V288.848C348.967 268.594 336.221 259.885 324.487 259.885C312.753 259.885 300.007 268.594 300.007 288.848Z" fill="#F75C2E"/>
<path d="M390.208 251.397V248.359H443.821C471.74 248.359 490.151 265.372 490.151 295.753C490.151 322.083 476.393 338.287 454.543 342.135L476.393 404.315C478.821 410.998 485.498 409.562 490.151 410.777V413.815H489.726H462.889H450.093V410.777C454.746 409.562 456.567 410.998 454.139 404.315L432.694 343.147H419.341V378.553C419.341 386.047 423.589 391.11 428.243 392.326V395.364H405.098H390.208V392.326C394.861 391.11 399.109 386.249 399.109 379.16V264.562C399.109 257.473 394.861 252.612 390.208 251.397ZM443.821 268.613H419.341V322.894H443.821C455.555 322.894 469.919 316.007 469.919 295.753C469.919 275.499 455.555 268.613 443.821 268.613Z" fill="#F75C2E"/>
<path d="M504.405 408.018V404.98C509.058 403.765 513.306 398.904 513.306 391.815V252.063C513.306 244.974 509.058 240.113 504.405 238.898V235.86H558.018C585.937 235.86 602.729 253.278 602.729 284.267V359.611C602.729 390.6 585.937 408.018 558.018 408.018H519.295H504.405ZM558.018 256.114H533.538V387.764H558.018C569.752 387.764 582.498 379.055 582.498 358.801V285.077C582.498 264.823 569.752 256.114 558.018 256.114Z" fill="#F75C2E"/>
<path d="M622.008 413.815V384.649H625.042C626.256 389.308 631.112 393.561 638.193 393.561H662.066C673.8 393.561 686.546 384.852 686.546 367.231C686.546 318.014 622.008 359.737 622.008 290.063C622.008 259.075 638.8 234.72 666.719 234.72H702.731V242.905V263.886H699.696C698.482 259.227 693.627 254.974 686.546 254.974H666.719C654.985 254.974 642.239 270.619 642.239 289.051C642.239 337.863 706.777 295.734 706.777 365.408C706.777 396.397 689.985 413.815 662.066 413.815H630.183H622.008Z" fill="#F75C2E"/>
<path d="M205.093 192.922L203.838 83.077H224.069V101.499H255.226C262.307 101.499 267.162 97.2458 268.376 92.5874H271.411V107.494V130.665H268.376C267.162 126.006 262.307 121.753 255.226 121.753H224.069L225.325 188.871H271.857C278.938 188.871 283.793 184.618 285.007 179.959H288.042V194.866V209.125H211.081H196.191V206.087C200.844 204.871 205.093 200.011 205.093 192.922Z" fill="#F75C2E"/>
<path d="M203.838 59.5051C203.838 52.4162 199.589 47.5553 194.936 46.3401V43.302H286.787V51.4869V72.4677H283.752C282.538 67.8093 277.683 63.5559 270.602 63.5559H224.069V85.6418H203.838V59.5051Z" fill="#F75C2E"/>
<path d="M330.166 108.62H346.011L399.357 108.838V181.939C399.357 189.028 403.606 193.889 408.259 195.104V198.142H385.114H370.224V195.104C374.877 193.889 379.126 189.028 379.126 181.939V128.874H330.166V181.939C330.166 189.028 334.415 193.889 339.068 195.104V198.142H315.923H301.033V195.104C305.686 193.889 309.934 189.028 309.934 181.939V108.472L330.166 108.555V108.62Z" fill="#F75C2E"/>
<path d="M354.646 80.5799C342.912 80.5799 330.166 89.2892 330.166 109.543V144.923L309.935 144.84V108.733C309.935 77.7444 326.727 60.326 354.646 60.326C382.566 60.326 399.358 77.7444 399.358 108.733V145.206L379.126 144.988V109.543C379.126 89.2892 366.38 80.5799 354.646 80.5799Z" fill="#F75C2E"/>
<path d="M80.7234 40.307H88.899L80.7234 32.122V40.307Z" fill="#C94F2B"/>
<path d="M8.17556 212.466V204.281H0L8.17556 212.466Z" fill="#C94F2B"/>
<path d="M127.583 197.666V194.628C130.165 193.954 132.622 192.157 134.298 189.481H119.408L127.583 197.666Z" fill="#C94F2B"/>
<path d="M101.485 37.3506V22.4438C98.8115 24.1217 97.0173 26.5814 96.3439 29.1657H93.3092L101.485 37.3506Z" fill="#C94F2B"/>
<path d="M312.48 8.18493H320.655L312.48 0V8.18493Z" fill="#C94F2B"/>
<path d="M286.787 51.4869H294.962L286.787 43.302V51.4869Z" fill="#C94F2B"/>
<path d="M271.411 107.494C274.084 105.816 275.878 103.357 276.552 100.772H279.587L271.411 92.5874V107.494Z" fill="#C94F2B"/>
<path d="M288.042 194.866C290.715 193.188 292.509 190.728 293.183 188.144H296.218L288.042 179.959V194.866Z" fill="#C94F2B"/>
<path d="M204.367 217.31V214.272C206.948 213.597 209.405 211.801 211.081 209.125H196.191L204.367 217.31Z" fill="#C94F2B"/>
<path d="M309.208 203.289C311.79 202.615 314.247 200.819 315.923 198.142H301.033L309.208 206.327V203.289Z" fill="#C94F2B"/>
<path d="M378.4 206.327V203.289C380.981 202.615 383.438 200.819 385.114 198.142H370.224L378.4 206.327Z" fill="#C94F2B"/>
<path d="M339.133 195.17C340.575 199.491 343.798 202.389 347.243 203.289L339.133 195.17Z" fill="#C94F2B"/>
<path d="M408.325 195.17C409.766 199.491 412.99 202.389 416.435 203.289L408.325 195.17Z" fill="#C94F2B"/>
<path d="M428.542 185.631V182.593C431.124 181.919 433.581 180.123 435.257 177.446H420.367L428.542 185.631Z" fill="#C94F2B"/>
<path d="M458.467 174.474C459.909 178.795 463.132 181.693 466.577 182.593L458.467 174.474Z" fill="#C94F2B"/>
<path d="M488.022 125.746L481.856 113.605L479.847 117.561L488.022 125.746Z" fill="#C94F2B"/>
<path d="M509.468 207.079V204.04C512.049 203.366 514.506 201.57 516.182 198.894H501.292L509.468 207.079Z" fill="#C94F2B"/>
<path d="M539.393 195.921C540.834 200.242 544.058 203.141 547.503 204.04L539.393 195.921Z" fill="#C94F2B"/>
<path d="M532.613 22.0457H547.503L539.327 13.8608V16.8989C536.746 17.5731 534.289 19.3694 532.613 22.0457Z" fill="#C94F2B"/>
<path d="M453.601 22.0457H457.675L449.5 13.8608L453.601 22.0457Z" fill="#C94F2B"/>
<path d="M702.731 242.905H710.907L702.731 234.72V242.905Z" fill="#C94F2B"/>
<path d="M630.183 422V413.815H622.008L630.183 422Z" fill="#C94F2B"/>
<path d="M512.58 416.203V413.165C515.162 412.491 517.619 410.695 519.295 408.018H504.405L512.58 416.203Z" fill="#C94F2B"/>
<path d="M458.268 422V418.962C460.797 418.302 462.369 416.445 462.889 413.815H450.093L458.268 422Z" fill="#C94F2B"/>
<path d="M489.726 413.815C492.552 416.445 495.798 418.302 498.326 418.962L490.151 410.777V413.815H489.726Z" fill="#C94F2B"/>
<path d="M428.477 392.56C429.99 396.823 433.101 399.644 436.418 400.51L428.477 392.56Z" fill="#C94F2B"/>
<path d="M398.383 403.549V400.51C400.965 399.836 403.422 398.04 405.098 395.364H390.208L398.383 403.549Z" fill="#C94F2B"/>
<path d="M378.185 392.391C379.627 396.712 382.85 399.611 386.295 400.51L378.185 392.391Z" fill="#C94F2B"/>
<path d="M348.26 403.549V400.51C350.842 399.836 353.299 398.04 354.975 395.364H340.085L348.26 403.549Z" fill="#C94F2B"/>
<path d="M308.974 410.843C310.416 415.164 313.639 418.062 317.084 418.962L308.974 410.843Z" fill="#C94F2B"/>
<path d="M279.049 418.962C281.631 418.288 284.088 416.491 285.764 413.815H270.874L279.049 422V418.962Z" fill="#C94F2B"/>
<path d="M256.683 385.663C259.356 383.985 261.151 381.525 261.824 378.941H264.859L256.683 370.756V385.663Z" fill="#C94F2B"/>
<path d="M256.683 235.948H264.859L256.683 227.763V235.948Z" fill="#C94F2B"/>
<path d="M571.839 74.3167V59.4098C569.166 61.0877 567.372 63.5474 566.698 66.1318H563.664L571.839 74.3167Z" fill="black"/>
<path d="M645.398 194.866C648.072 193.188 649.866 190.728 650.539 188.144H653.574L645.398 179.959V194.866Z" fill="black"/>
<path d="M567.793 217.31V209.125H559.617L567.793 217.31Z" fill="black"/>
<path d="M779.346 218.625V215.587C781.927 214.913 784.384 213.117 786.06 210.44H771.17L779.346 218.625Z" fill="black"/>
<path d="M849.751 203.638V200.6C852.332 199.926 853.046 198.129 852.824 195.453H841.575L849.751 203.638Z" fill="black"/>
<path d="M878.755 195.453C882.304 198.105 886.445 199.933 889 200.6L880.824 192.415V195.453H878.755Z" fill="black"/>
<path d="M872.337 46.4666H889L880.824 38.2817V41.3198C878.448 41.9405 875.385 43.935 872.337 46.4666Z" fill="black"/>
<path d="M802.49 46.4666H817.381L809.205 38.2817V41.3198C806.624 41.994 804.167 43.7903 802.49 46.4666Z" fill="black"/>
</svg>
